<svg xmlns="http://www.w3.org/2000/svg" viewBox="0 0 720 320" fill="none">
  <defs>
    <style>
      .col-bg { fill: #f4f5f7; rx: 8; }
      .col-header { font-family: -apple-system, BlinkMacSystemFont, 'Segoe UI', sans-serif; font-size: 13px; font-weight: 600; fill: #6b7280; text-transform: uppercase; letter-spacing: 0.05em; }
      .card { fill: #ffffff; rx: 6; filter: drop-shadow(0 1px 3px rgba(0,0,0,0.08)); }
      .card-text { font-family: -apple-system, BlinkMacSystemFont, 'Segoe UI', sans-serif; font-size: 12px; fill: #374151; }
      .card-id { font-family: -apple-system, BlinkMacSystemFont, 'Segoe UI', sans-serif; font-size: 10px; fill: #9ca3af; }
      .card-moving { fill: #ffffff; rx: 6; filter: drop-shadow(0 4px 12px rgba(99,102,241,0.25)); }
      .accent-dot { fill: #6366f1; }
      .done-dot { fill: #22c55e; }
      .trail { stroke: #6366f1; stroke-width: 2; stroke-dasharray: 6 4; opacity: 0.3; }
      .arrow { fill: #6366f1; opacity: 0.4; }
      .col-count { font-family: -apple-system, BlinkMacSystemFont, 'Segoe UI', sans-serif; font-size: 11px; fill: #9ca3af; }
    </style>
  </defs>

  <!-- Background -->
  <rect width="720" height="320" fill="#fafafa" rx="12"/>

  <!-- Column: To do -->
  <rect class="col-bg" x="24" y="20" width="210" height="280" rx="8"/>
  <text class="col-header" x="40" y="48">To do</text>
  <text class="col-count" x="90" y="48">2</text>

  <!-- To do cards -->
  <rect class="card" x="36" y="62" width="186" height="56" rx="6"/>
  <circle class="accent-dot" cx="48" cy="82" r="3"/>
  <text class="card-text" x="58" y="86">Add dark mode toggle</text>
  <text class="card-id" x="58" y="102">PG-142</text>

  <rect class="card" x="36" y="128" width="186" height="56" rx="6"/>
  <circle class="accent-dot" cx="48" cy="148" r="3"/>
  <text class="card-text" x="58" y="152">Fix validation errors</text>
  <text class="card-id" x="58" y="168">PG-143</text>

  <!-- Column: Doing -->
  <rect class="col-bg" x="255" y="20" width="210" height="280" rx="8"/>
  <text class="col-header" x="271" y="48">Doing</text>
  <text class="col-count" x="319" y="48">1</text>

  <!-- Doing card (static) -->
  <rect class="card" x="267" y="62" width="186" height="56" rx="6"/>
  <circle class="accent-dot" cx="279" cy="82" r="3"/>
  <text class="card-text" x="289" y="86">Refactor auth service</text>
  <text class="card-id" x="289" y="102">PG-139</text>

  <!-- Motion trail from Doing to Done -->
  <path class="trail" d="M 453 155 C 470 155, 475 155, 490 155"/>
  <polygon class="arrow" points="488,149 498,155 488,161"/>

  <!-- Column: Done -->
  <rect class="col-bg" x="486" y="20" width="210" height="280" rx="8"/>
  <text class="col-header" x="502" y="48">Done</text>
  <text class="col-count" x="543" y="48">3</text>

  <!-- Done cards -->
  <rect class="card" x="498" y="62" width="186" height="56" rx="6"/>
  <circle class="done-dot" cx="510" cy="82" r="3"/>
  <text class="card-text" x="520" y="86">Set up CI pipeline</text>
  <text class="card-id" x="520" y="102">PG-135</text>

  <rect class="card" x="498" y="128" width="186" height="56" rx="6"/>
  <circle class="done-dot" cx="510" cy="148" r="3"/>
  <text class="card-text" x="520" y="152">Add user onboarding</text>
  <text class="card-id" x="520" y="168">PG-136</text>

  <!-- Moving card (in transit from Doing → Done) -->
  <g transform="translate(430, 130) rotate(-3)">
    <rect class="card-moving" x="0" y="0" width="186" height="56" rx="6"/>
    <circle class="accent-dot" cx="12" cy="20" r="3"/>
    <text class="card-text" x="22" y="24">Update API endpoints</text>
    <text class="card-id" x="22" y="40">PG-140</text>
  </g>

  <!-- Subtle motion lines behind moving card -->
  <line x1="420" y1="148" x2="405" y2="148" stroke="#6366f1" stroke-width="1.5" opacity="0.15"/>
  <line x1="420" y1="155" x2="398" y2="155" stroke="#6366f1" stroke-width="1.5" opacity="0.1"/>
  <line x1="420" y1="162" x2="408" y2="162" stroke="#6366f1" stroke-width="1.5" opacity="0.12"/>
</svg>
