<svg xmlns="http://www.w3.org/2000/svg" viewBox="0 0 400 500" fill="none">
  <!-- Glow -->
  <circle cx="200" cy="190" r="140" fill="#fef3c7" opacity="0.4"/>
  <circle cx="200" cy="190" r="100" fill="#fde68a" opacity="0.3"/>

  <!-- Bulb glass -->
  <path d="M200 40c-77 0-120 55-120 120 0 45 20 70 40 95 15 19 25 35 25 55h110c0-20 10-36 25-55 20-25 40-50 40-95 0-65-43-120-120-120z" fill="#fefce8" stroke="#d97706" stroke-width="3"/>

  <!-- Filament -->
  <path d="M170 200 c0-30 15-50 30-50s30 20 30 50" stroke="#f59e0b" stroke-width="3" fill="none" stroke-linecap="round"/>
  <line x1="185" y1="200" x2="185" y2="220" stroke="#f59e0b" stroke-width="2"/>
  <line x1="215" y1="200" x2="215" y2="220" stroke="#f59e0b" stroke-width="2"/>

  <!-- Base/screw cap -->
  <rect x="145" y="310" width="110" height="16" rx="4" fill="#d97706"/>
  <rect x="150" y="330" width="100" height="14" rx="4" fill="#b45309"/>
  <rect x="155" y="348" width="90" height="14" rx="4" fill="#d97706"/>
  <rect x="160" y="366" width="80" height="14" rx="4" fill="#b45309"/>
  <path d="M165 380 h70 l-10 25 h-50 z" fill="#92400e"/>

  <!-- Rays -->
  <line x1="200" y1="10" x2="200" y2="0" stroke="#fbbf24" stroke-width="3" stroke-linecap="round"/>
  <line x1="280" y1="50" x2="290" y2="40" stroke="#fbbf24" stroke-width="3" stroke-linecap="round"/>
  <line x1="120" y1="50" x2="110" y2="40" stroke="#fbbf24" stroke-width="3" stroke-linecap="round"/>
  <line x1="330" y1="120" x2="345" y2="115" stroke="#fbbf24" stroke-width="3" stroke-linecap="round"/>
  <line x1="70" y1="120" x2="55" y2="115" stroke="#fbbf24" stroke-width="3" stroke-linecap="round"/>
  <line x1="340" y1="190" x2="355" y2="190" stroke="#fbbf24" stroke-width="3" stroke-linecap="round"/>
  <line x1="60" y1="190" x2="45" y2="190" stroke="#fbbf24" stroke-width="3" stroke-linecap="round"/>
</svg>
